<mxfile host="app.diagrams.net" modified="2023-10-27T09:17:33.832Z" agent="Mozilla/5.0 (Macintosh; Intel Mac OS X 10_15_7) AppleWebKit/537.36 (KHTML, like Gecko) Chrome/118.0.0.0 Safari/537.36 Edg/118.0.2088.69" etag="a_1BOTfCw8Q_qwZLVibX" version="22.0.8" type="github">
  <diagram name="Page-1" id="S6JcJth3HH0a3yVuCKGj">
    <mxGraphModel dx="1238" dy="710" grid="1" gridSize="10" guides="1" tooltips="1" connect="1" arrows="1" fold="1" page="0" pageScale="1" pageWidth="827" pageHeight="1169" math="0" shadow="0">
      <root>
        <mxCell id="0" />
        <mxCell id="1" parent="0" />
        <mxCell id="sHQKDCTD3Xc6LhxY6QWa-10" value="Integrations" style="edgeStyle=orthogonalEdgeStyle;rounded=0;orthogonalLoop=1;jettySize=auto;html=1;" edge="1" parent="1" source="sHQKDCTD3Xc6LhxY6QWa-1" target="sHQKDCTD3Xc6LhxY6QWa-9">
          <mxGeometry relative="1" as="geometry" />
        </mxCell>
        <mxCell id="sHQKDCTD3Xc6LhxY6QWa-1" value="Uptime check" style="rounded=0;whiteSpace=wrap;html=1;" vertex="1" parent="1">
          <mxGeometry x="-290" y="290" width="120" height="60" as="geometry" />
        </mxCell>
        <mxCell id="sHQKDCTD3Xc6LhxY6QWa-5" value="AutoShare" style="edgeStyle=orthogonalEdgeStyle;rounded=0;orthogonalLoop=1;jettySize=auto;html=1;" edge="1" parent="1" source="sHQKDCTD3Xc6LhxY6QWa-2" target="sHQKDCTD3Xc6LhxY6QWa-4">
          <mxGeometry relative="1" as="geometry" />
        </mxCell>
        <mxCell id="sHQKDCTD3Xc6LhxY6QWa-8" value="AutoShare" style="edgeStyle=orthogonalEdgeStyle;rounded=0;orthogonalLoop=1;jettySize=auto;html=1;exitX=1;exitY=0.75;exitDx=0;exitDy=0;entryX=0;entryY=0.5;entryDx=0;entryDy=0;" edge="1" parent="1" source="sHQKDCTD3Xc6LhxY6QWa-2" target="sHQKDCTD3Xc6LhxY6QWa-6">
          <mxGeometry relative="1" as="geometry" />
        </mxCell>
        <mxCell id="sHQKDCTD3Xc6LhxY6QWa-2" value="Bigpanda Environment" style="rounded=0;whiteSpace=wrap;html=1;" vertex="1" parent="1">
          <mxGeometry x="220" y="290" width="120" height="60" as="geometry" />
        </mxCell>
        <mxCell id="sHQKDCTD3Xc6LhxY6QWa-4" value="Slack" style="rounded=0;whiteSpace=wrap;html=1;" vertex="1" parent="1">
          <mxGeometry x="480" y="290" width="120" height="60" as="geometry" />
        </mxCell>
        <mxCell id="sHQKDCTD3Xc6LhxY6QWa-6" value="Servicedesk" style="rounded=0;whiteSpace=wrap;html=1;" vertex="1" parent="1">
          <mxGeometry x="480" y="430" width="120" height="60" as="geometry" />
        </mxCell>
        <mxCell id="sHQKDCTD3Xc6LhxY6QWa-11" value="Filter" style="edgeStyle=orthogonalEdgeStyle;rounded=0;orthogonalLoop=1;jettySize=auto;html=1;exitX=1;exitY=0.5;exitDx=0;exitDy=0;entryX=0;entryY=0.5;entryDx=0;entryDy=0;" edge="1" parent="1" source="sHQKDCTD3Xc6LhxY6QWa-9" target="sHQKDCTD3Xc6LhxY6QWa-2">
          <mxGeometry relative="1" as="geometry" />
        </mxCell>
        <mxCell id="sHQKDCTD3Xc6LhxY6QWa-9" value="Bigpanda" style="rounded=0;whiteSpace=wrap;html=1;" vertex="1" parent="1">
          <mxGeometry x="-10" y="290" width="120" height="60" as="geometry" />
        </mxCell>
        <mxCell id="sHQKDCTD3Xc6LhxY6QWa-12" value="Check Equals To : &lt;br&gt;Cerberus*Dev*&lt;br&gt;Cerberus*Beta*&lt;br&gt;Cerberus*Prod*" style="text;html=1;strokeColor=none;fillColor=none;align=center;verticalAlign=middle;whiteSpace=wrap;rounded=0;" vertex="1" parent="1">
          <mxGeometry x="100" y="340" width="140" height="90" as="geometry" />
        </mxCell>
        <mxCell id="sHQKDCTD3Xc6LhxY6QWa-13" value="Slack&lt;br&gt;Bigpanda-prod" style="text;html=1;strokeColor=none;fillColor=none;align=center;verticalAlign=middle;whiteSpace=wrap;rounded=0;" vertex="1" parent="1">
          <mxGeometry x="-130" y="350" width="160" height="80" as="geometry" />
        </mxCell>
      </root>
    </mxGraphModel>
  </diagram>
</mxfile>
